<?xml version="1.0" encoding="UTF-8" standalone="no" ?>
<!DOCTYPE svg PUBLIC "-//W3C//DTD SVG 1.1//EN" "http://www.w3.org/Graphics/SVG/1.1/DTD/svg11.dtd">
<svg xmlns="http://www.w3.org/2000/svg" xmlns:xlink="http://www.w3.org/1999/xlink" version="1.1" width="512" height="512" viewBox="0 0 500 500" xml:space="preserve">
<desc>Created with Fabric.js 4.6.0</desc>
<defs>
</defs>
<g transform="matrix(1.21 0 0 1.21 255.18 250)" id="PKiDpIqnLItST9NLGLTaW"  >
<path style="stroke: rgb(89,81,88); stroke-width: 0; stroke-dasharray: none; stroke-linecap: butt; stroke-dashoffset: 0; stroke-linejoin: miter; stroke-miterlimit: 4; fill: rgb(0,150,136); fill-rule: nonzero; opacity: 1;" vector-effect="non-scaling-stroke"  transform=" translate(0, 0)" d="M 0 -144.5 C 79.764 -144.5 144.5 -79.764 144.5 0 C 144.5 79.764 79.764 144.5 0 144.5 C -79.764 144.5 -144.5 79.764 -144.5 0 C -144.5 -79.764 -79.764 -144.5 0 -144.5 z" stroke-linecap="round" />
</g>
<g transform="matrix(0.65 0 0 0.65 294.13 257.61)" id="mouaXwqE1JPERLco3cBPe"  >
<path style="stroke: rgb(35,10,154); stroke-width: 0; stroke-dasharray: none; stroke-linecap: butt; stroke-dashoffset: 0; stroke-linejoin: miter; stroke-miterlimit: 4; fill: rgb(149,79,174); fill-rule: nonzero; opacity: 1;" vector-effect="non-scaling-stroke"  transform=" translate(0, 0)" d="M 0 -12.5 C 6.9 -12.5 12.5 -6.9 12.5 0 C 12.5 6.9 6.9 12.5 0 12.5 C -6.9 12.5 -12.5 6.9 -12.5 0 C -12.5 -6.9 -6.9 -12.5 0 -12.5 z" stroke-linecap="round" />
</g>
<g transform="matrix(0.92 0 0 0.92 324.75 297.39)" id="Jq1YllClVG-GkZIWLKFx8"  >
<path style="stroke: rgb(35,10,154); stroke-width: 0; stroke-dasharray: none; stroke-linecap: butt; stroke-dashoffset: 0; stroke-linejoin: miter; stroke-miterlimit: 4; fill: rgb(63,58,58); fill-rule: nonzero; opacity: 1;" vector-effect="non-scaling-stroke"  transform=" translate(0, 0)" d="M 0 -12.5 C 6.9 -12.5 12.5 -6.9 12.5 0 C 12.5 6.9 6.9 12.5 0 12.5 C -6.9 12.5 -12.5 6.9 -12.5 0 C -12.5 -6.9 -6.9 -12.5 0 -12.5 z" stroke-linecap="round" />
</g>
<g transform="matrix(0.92 0 0 0.92 369.57 297.39)" id="WX_kHJ_vtgLAfXQOtuLFn"  >
<path style="stroke: rgb(35,10,154); stroke-width: 0; stroke-dasharray: none; stroke-linecap: butt; stroke-dashoffset: 0; stroke-linejoin: miter; stroke-miterlimit: 4; fill: rgb(63,58,58); fill-rule: nonzero; opacity: 1;" vector-effect="non-scaling-stroke"  transform=" translate(0, 0)" d="M 0 -12.5 C 6.9 -12.5 12.5 -6.9 12.5 0 C 12.5 6.9 6.9 12.5 0 12.5 C -6.9 12.5 -12.5 6.9 -12.5 0 C -12.5 -6.9 -6.9 -12.5 0 -12.5 z" stroke-linecap="round" />
</g>
<g transform="matrix(-0.77 0 0 0.77 307.15 235.83)" id="FAovb2wt12pBpNtJ5Q-SG"  >
<path style="stroke: rgb(132,255,129); stroke-width: 0; stroke-dasharray: none; stroke-linecap: butt; stroke-dashoffset: 0; stroke-linejoin: miter; stroke-miterlimit: 4; fill: rgb(49,78,187); fill-rule: nonzero; opacity: 1;" vector-effect="non-scaling-stroke"  transform=" translate(0, 0)" d="M -27.5 -15.80532 C -27.5 -22.26411 -22.26411 -27.5 -15.80532 -27.5 L 15.80531 -27.5 L 15.80531 -27.5 C 22.2641 -27.5 27.49999 -22.26411 27.49999 -15.80532 L 27.49999 15.80531 L 27.49999 15.80531 C 27.49999 22.2641 22.2641 27.49999 15.80531 27.49999 L -15.80532 27.49999 L -15.80532 27.49999 C -22.26411 27.49999 -27.5 22.2641 -27.5 15.80531 z" stroke-linecap="round" />
</g>
<g transform="matrix(-1.27 0 0 1.27 346.29 257.61)" id="tAt9J5EOvJWqVi-nu-5u9"  >
<path style="stroke: rgb(132,255,129); stroke-width: 0; stroke-dasharray: none; stroke-linecap: butt; stroke-dashoffset: 0; stroke-linejoin: miter; stroke-miterlimit: 4; fill: rgb(49,78,187); fill-rule: nonzero; opacity: 1;" vector-effect="non-scaling-stroke"  transform=" translate(0, 0)" d="M -27.5 -15.83274 C -27.5 -22.27639 -22.27639 -27.5 -15.83274 -27.5 L 15.83273 -27.5 L 15.83273 -27.5 C 22.27638 -27.5 27.49999 -22.27639 27.49999 -15.83274 L 27.49999 15.83273 L 27.49999 15.83273 C 27.49999 22.27638 22.27638 27.49999 15.83273 27.49999 L -15.83274 27.49999 L -15.83274 27.49999 C -22.27639 27.49999 -27.5 22.27638 -27.5 15.83273 z" stroke-linecap="round" />
</g>
<g transform="matrix(0.78 0.49 -0.52 0.83 321.41 244.43)" id="-UQv1lpAeh_gHycLkKBlX"  >
<path style="stroke: rgb(30,17,225); stroke-width: 0; stroke-dasharray: none; stroke-linecap: butt; stroke-dashoffset: 0; stroke-linejoin: miter; stroke-miterlimit: 4; fill: rgb(49,78,187); fill-rule: nonzero; opacity: 1;" vector-effect="non-scaling-stroke"  transform=" translate(0, 0)" d="M -22.5 -22.5 L 22.5 -22.5 L 22.5 22.5 L -22.5 22.5 z" stroke-linecap="round" />
</g>
<g transform="matrix(0.72 0 0 0.72 214.32 293.68)" id="nzjBo3V6txF4ORkrxoywc"  >
<path style="stroke: rgb(35,10,154); stroke-width: 0; stroke-dasharray: none; stroke-linecap: butt; stroke-dashoffset: 0; stroke-linejoin: miter; stroke-miterlimit: 4; fill: rgb(63,58,58); fill-rule: nonzero; opacity: 1;" vector-effect="non-scaling-stroke"  transform=" translate(0, 0)" d="M 0 -12.5 C 6.9 -12.5 12.5 -6.9 12.5 0 C 12.5 6.9 6.9 12.5 0 12.5 C -6.9 12.5 -12.5 6.9 -12.5 0 C -12.5 -6.9 -6.9 -12.5 0 -12.5 z" stroke-linecap="round" />
</g>
<g transform="matrix(1.03 0 0 1.03 248.68 338.32)" id="87SjHMx2QZf3x-vSgts-g"  >
<path style="stroke: rgb(35,10,154); stroke-width: 0; stroke-dasharray: none; stroke-linecap: butt; stroke-dashoffset: 0; stroke-linejoin: miter; stroke-miterlimit: 4; fill: rgb(63,58,58); fill-rule: nonzero; opacity: 1;" vector-effect="non-scaling-stroke"  transform=" translate(0, 0)" d="M 0 -12.5 C 6.9 -12.5 12.5 -6.9 12.5 0 C 12.5 6.9 6.9 12.5 0 12.5 C -6.9 12.5 -12.5 6.9 -12.5 0 C -12.5 -6.9 -6.9 -12.5 0 -12.5 z" stroke-linecap="round" />
</g>
<g transform="matrix(0.42 0 0 0.42 158.01 239.32)" id="-arOFL2zK9EpLG3Z13crK"  >
<path style="stroke: rgb(35,10,154); stroke-width: 0; stroke-dasharray: none; stroke-linecap: butt; stroke-dashoffset: 0; stroke-linejoin: miter; stroke-miterlimit: 4; fill: rgb(63,58,58); fill-rule: nonzero; opacity: 1;" vector-effect="non-scaling-stroke"  transform=" translate(0, 0)" d="M 0 -12.5 C 6.9 -12.5 12.5 -6.9 12.5 0 C 12.5 6.9 6.9 12.5 0 12.5 C -6.9 12.5 -12.5 6.9 -12.5 0 C -12.5 -6.9 -6.9 -12.5 0 -12.5 z" stroke-linecap="round" />
</g>
<g transform="matrix(0.6 0 0 0.6 177.83 265.08)" id="WYSYVH1livaasjaI-IdyT"  >
<path style="stroke: rgb(35,10,154); stroke-width: 0; stroke-dasharray: none; stroke-linecap: butt; stroke-dashoffset: 0; stroke-linejoin: miter; stroke-miterlimit: 4; fill: rgb(63,58,58); fill-rule: nonzero; opacity: 1;" vector-effect="non-scaling-stroke"  transform=" translate(0, 0)" d="M 0 -12.5 C 6.9 -12.5 12.5 -6.9 12.5 0 C 12.5 6.9 6.9 12.5 0 12.5 C -6.9 12.5 -12.5 6.9 -12.5 0 C -12.5 -6.9 -6.9 -12.5 0 -12.5 z" stroke-linecap="round" />
</g>
<g transform="matrix(0.24 0 0 0.24 190.77 208.21)" id="25cTJYFC9CPHeuxwjkFmY"  >
<path style="stroke: rgb(35,10,154); stroke-width: 0; stroke-dasharray: none; stroke-linecap: butt; stroke-dashoffset: 0; stroke-linejoin: miter; stroke-miterlimit: 4; fill: rgb(63,58,58); fill-rule: nonzero; opacity: 1;" vector-effect="non-scaling-stroke"  transform=" translate(0, 0)" d="M 0 -12.5 C 6.9 -12.5 12.5 -6.9 12.5 0 C 12.5 6.9 6.9 12.5 0 12.5 C -6.9 12.5 -12.5 6.9 -12.5 0 C -12.5 -6.9 -6.9 -12.5 0 -12.5 z" stroke-linecap="round" />
</g>
<g transform="matrix(0.34 0 0 0.34 202.03 222.85)" id="F5shFg4uGmMHCbjPBzXjD"  >
<path style="stroke: rgb(35,10,154); stroke-width: 0; stroke-dasharray: none; stroke-linecap: butt; stroke-dashoffset: 0; stroke-linejoin: miter; stroke-miterlimit: 4; fill: rgb(149,79,174); fill-rule: nonzero; opacity: 1;" vector-effect="non-scaling-stroke"  transform=" translate(0, 0)" d="M 0 -12.5 C 6.9 -12.5 12.5 -6.9 12.5 0 C 12.5 6.9 6.9 12.5 0 12.5 C -6.9 12.5 -12.5 6.9 -12.5 0 C -12.5 -6.9 -6.9 -12.5 0 -12.5 z" stroke-linecap="round" />
</g>
<g transform="matrix(0.34 0 0 0.34 218.53 222.85)" id="LgdNheJ4ffzViDgVMjYWa"  >
<path style="stroke: rgb(35,10,154); stroke-width: 0; stroke-dasharray: none; stroke-linecap: butt; stroke-dashoffset: 0; stroke-linejoin: miter; stroke-miterlimit: 4; fill: rgb(63,58,58); fill-rule: nonzero; opacity: 1;" vector-effect="non-scaling-stroke"  transform=" translate(0, 0)" d="M 0 -12.5 C 6.9 -12.5 12.5 -6.9 12.5 0 C 12.5 6.9 6.9 12.5 0 12.5 C -6.9 12.5 -12.5 6.9 -12.5 0 C -12.5 -6.9 -6.9 -12.5 0 -12.5 z" stroke-linecap="round" />
</g>
<g transform="matrix(-0.28 0 0 0.28 195.56 200.2)" id="Io4QAlZzTsg58ejzixcc6"  >
<path style="stroke: rgb(132,255,129); stroke-width: 0; stroke-dasharray: none; stroke-linecap: butt; stroke-dashoffset: 0; stroke-linejoin: miter; stroke-miterlimit: 4; fill: rgb(49,78,187); fill-rule: nonzero; opacity: 1;" vector-effect="non-scaling-stroke"  transform=" translate(0, 0)" d="M -27.5 -15.80919 C -27.5 -22.26585 -22.26585 -27.5 -15.80919 -27.5 L 15.80919 -27.5 L 15.80919 -27.5 C 22.26585 -27.5 27.5 -22.26585 27.5 -15.80919 L 27.5 15.80919 L 27.5 15.80919 C 27.5 22.26585 22.26585 27.5 15.80919 27.5 L -15.80919 27.5 L -15.80919 27.5 C -22.26585 27.5 -27.5 22.26585 -27.5 15.80919 z" stroke-linecap="round" />
</g>
<g transform="matrix(-0.46 0 0 0.46 209.96 208.21)" id="V1YFK3fnrJcjDY6X5i0wP"  >
<path style="stroke: rgb(132,255,129); stroke-width: 0; stroke-dasharray: none; stroke-linecap: butt; stroke-dashoffset: 0; stroke-linejoin: miter; stroke-miterlimit: 4; fill: rgb(49,78,187); fill-rule: nonzero; opacity: 1;" vector-effect="non-scaling-stroke"  transform=" translate(0, 0)" d="M -27.5 -15.81099 C -27.5 -22.26665 -22.26665 -27.5 -15.81099 -27.5 L 15.81098 -27.5 L 15.81098 -27.5 C 22.266640000000002 -27.5 27.49999 -22.26665 27.49999 -15.81099 L 27.49999 15.81098 L 27.49999 15.81098 C 27.49999 22.266640000000002 22.266640000000002 27.49999 15.81098 27.49999 L -15.81099 27.49999 L -15.81099 27.49999 C -22.26665 27.49999 -27.5 22.266640000000002 -27.5 15.81098 z" stroke-linecap="round" />
</g>
<g transform="matrix(0.29 0.18 -0.19 0.31 200.81 203.36)" id="nk6Dgd7zrZE8z46KJFoBM"  >
<path style="stroke: rgb(30,17,225); stroke-width: 0; stroke-dasharray: none; stroke-linecap: butt; stroke-dashoffset: 0; stroke-linejoin: miter; stroke-miterlimit: 4; fill: rgb(49,78,187); fill-rule: nonzero; opacity: 1;" vector-effect="non-scaling-stroke"  transform=" translate(0, 0)" d="M -22.5 -22.5 L 22.5 -22.5 L 22.5 22.5 L -22.5 22.5 z" stroke-linecap="round" />
</g>
<g transform="matrix(0.1 0 0 0.1 108.12 189.53)" id="Uf1SCXHDjLZvHDkEt04X-"  >
<path style="stroke: rgb(35,10,154); stroke-width: 0; stroke-dasharray: none; stroke-linecap: butt; stroke-dashoffset: 0; stroke-linejoin: miter; stroke-miterlimit: 4; fill: rgb(63,58,58); fill-rule: nonzero; opacity: 1;" vector-effect="non-scaling-stroke"  transform=" translate(0, 0)" d="M 0 -12.5 C 6.9 -12.5 12.5 -6.9 12.5 0 C 12.5 6.9 6.9 12.5 0 12.5 C -6.9 12.5 -12.5 6.9 -12.5 0 C -12.5 -6.9 -6.9 -12.5 0 -12.5 z" stroke-linecap="round" />
</g>
<g transform="matrix(0.6 0 0 0.6 206.87 265.08)" id="hCUDyfQgrIW0uxPh5fBYj"  >
<path style="stroke: rgb(35,10,154); stroke-width: 0; stroke-dasharray: none; stroke-linecap: butt; stroke-dashoffset: 0; stroke-linejoin: miter; stroke-miterlimit: 4; fill: rgb(63,58,58); fill-rule: nonzero; opacity: 1;" vector-effect="non-scaling-stroke"  transform=" translate(0, 0)" d="M 0 -12.5 C 6.9 -12.5 12.5 -6.9 12.5 0 C 12.5 6.9 6.9 12.5 0 12.5 C -6.9 12.5 -12.5 6.9 -12.5 0 C -12.5 -6.9 -6.9 -12.5 0 -12.5 z" stroke-linecap="round" />
</g>
<g transform="matrix(0.27 0 0 0.27 122.11 211.53)" id="89NjN310c6ynZBQbB459f"  >
<path style="stroke: rgb(35,10,154); stroke-width: 0; stroke-dasharray: none; stroke-linecap: butt; stroke-dashoffset: 0; stroke-linejoin: miter; stroke-miterlimit: 4; fill: rgb(63,58,58); fill-rule: nonzero; opacity: 1;" vector-effect="non-scaling-stroke"  transform=" translate(0, 0)" d="M 0 -12.5 C 6.9 -12.5 12.5 -6.9 12.5 0 C 12.5 6.9 6.9 12.5 0 12.5 C -6.9 12.5 -12.5 6.9 -12.5 0 C -12.5 -6.9 -6.9 -12.5 0 -12.5 z" stroke-linecap="round" />
</g>
<g transform="matrix(0.38 0 0 0.38 134.88 228.14)" id="533CymvynOi-9ZLssNwy2"  >
<path style="stroke: rgb(35,10,154); stroke-width: 0; stroke-dasharray: none; stroke-linecap: butt; stroke-dashoffset: 0; stroke-linejoin: miter; stroke-miterlimit: 4; fill: rgb(63,58,58); fill-rule: nonzero; opacity: 1;" vector-effect="non-scaling-stroke"  transform=" translate(0, 0)" d="M 0 -12.5 C 6.9 -12.5 12.5 -6.9 12.5 0 C 12.5 6.9 6.9 12.5 0 12.5 C -6.9 12.5 -12.5 6.9 -12.5 0 C -12.5 -6.9 -6.9 -12.5 0 -12.5 z" stroke-linecap="round" />
</g>
<g transform="matrix(0.14 0 0 0.14 119.54 195.55)" id="45aXFK9XBpll_asqCKq4W"  >
<path style="stroke: rgb(35,10,154); stroke-width: 0; stroke-dasharray: none; stroke-linecap: butt; stroke-dashoffset: 0; stroke-linejoin: miter; stroke-miterlimit: 4; fill: rgb(63,58,58); fill-rule: nonzero; opacity: 1;" vector-effect="non-scaling-stroke"  transform=" translate(0, 0)" d="M 0 -12.5 C 6.9 -12.5 12.5 -6.9 12.5 0 C 12.5 6.9 6.9 12.5 0 12.5 C -6.9 12.5 -12.5 6.9 -12.5 0 C -12.5 -6.9 -6.9 -12.5 0 -12.5 z" stroke-linecap="round" />
</g>
<g transform="matrix(0.38 0 0 0.38 153.6 228.14)" id="2R_p0CbQZYlnYPfRfvNIW"  >
<path style="stroke: rgb(35,10,154); stroke-width: 0; stroke-dasharray: none; stroke-linecap: butt; stroke-dashoffset: 0; stroke-linejoin: miter; stroke-miterlimit: 4; fill: rgb(63,58,58); fill-rule: nonzero; opacity: 1;" vector-effect="non-scaling-stroke"  transform=" translate(0, 0)" d="M 0 -12.5 C 6.9 -12.5 12.5 -6.9 12.5 0 C 12.5 6.9 6.9 12.5 0 12.5 C -6.9 12.5 -12.5 6.9 -12.5 0 C -12.5 -6.9 -6.9 -12.5 0 -12.5 z" stroke-linecap="round" />
</g>
<g transform="matrix(-0.32 0 0 0.32 127.54 202.43)" id="x5RMeJNiuVZlhRlIPdWhl"  >
<path style="stroke: rgb(132,255,129); stroke-width: 0; stroke-dasharray: none; stroke-linecap: butt; stroke-dashoffset: 0; stroke-linejoin: miter; stroke-miterlimit: 4; fill: rgb(49,78,187); fill-rule: nonzero; opacity: 1;" vector-effect="non-scaling-stroke"  transform=" translate(0, 0)" d="M -27.5 -15.80919 C -27.5 -22.26585 -22.26585 -27.5 -15.80919 -27.5 L 15.80919 -27.5 L 15.80919 -27.5 C 22.26585 -27.5 27.5 -22.26585 27.5 -15.80919 L 27.5 15.80919 L 27.5 15.80919 C 27.5 22.26585 22.26585 27.5 15.80919 27.5 L -15.80919 27.5 L -15.80919 27.5 C -22.26585 27.5 -27.5 22.26585 -27.5 15.80919 z" stroke-linecap="round" />
</g>
<g transform="matrix(-0.53 0 0 0.53 143.89 211.53)" id="ytwL1_YYq_dRih5jVlMKf"  >
<path style="stroke: rgb(132,255,129); stroke-width: 0; stroke-dasharray: none; stroke-linecap: butt; stroke-dashoffset: 0; stroke-linejoin: miter; stroke-miterlimit: 4; fill: rgb(49,78,187); fill-rule: nonzero; opacity: 1;" vector-effect="non-scaling-stroke"  transform=" translate(0, 0)" d="M -27.5 -15.81099 C -27.5 -22.26665 -22.26665 -27.5 -15.81099 -27.5 L 15.81098 -27.5 L 15.81098 -27.5 C 22.266640000000002 -27.5 27.49999 -22.26665 27.49999 -15.81099 L 27.49999 15.81098 L 27.49999 15.81098 C 27.49999 22.266640000000002 22.266640000000002 27.49999 15.81098 27.49999 L -15.81099 27.49999 L -15.81099 27.49999 C -22.26665 27.49999 -27.5 22.266640000000002 -27.5 15.81098 z" stroke-linecap="round" />
</g>
<g transform="matrix(0.33 0.2 -0.22 0.35 133.49 206.02)" id="0LEcd77xqCdo9dCOdX37l"  >
<path style="stroke: rgb(30,17,225); stroke-width: 0; stroke-dasharray: none; stroke-linecap: butt; stroke-dashoffset: 0; stroke-linejoin: miter; stroke-miterlimit: 4; fill: rgb(49,78,187); fill-rule: nonzero; opacity: 1;" vector-effect="non-scaling-stroke"  transform=" translate(0, 0)" d="M -22.5 -22.5 L 22.5 -22.5 L 22.5 22.5 L -22.5 22.5 z" stroke-linecap="round" />
</g>
<g transform="matrix(-0.5 0 0 0.5 166.44 225.21)" id="kJcox0HXoPNDMhRM_xBH9"  >
<path style="stroke: rgb(132,255,129); stroke-width: 0; stroke-dasharray: none; stroke-linecap: butt; stroke-dashoffset: 0; stroke-linejoin: miter; stroke-miterlimit: 4; fill: rgb(49,78,187); fill-rule: nonzero; opacity: 1;" vector-effect="non-scaling-stroke"  transform=" translate(0, 0)" d="M -27.5 -15.80919 C -27.5 -22.26585 -22.26585 -27.5 -15.80919 -27.5 L 15.80919 -27.5 L 15.80919 -27.5 C 22.26585 -27.5 27.5 -22.26585 27.5 -15.80919 L 27.5 15.80919 L 27.5 15.80919 C 27.5 22.26585 22.26585 27.5 15.80919 27.5 L -15.80919 27.5 L -15.80919 27.5 C -22.26585 27.5 -27.5 22.26585 -27.5 15.80919 z" stroke-linecap="round" />
</g>
<g transform="matrix(-0.82 0 0 0.82 191.8 239.32)" id="JcYfRCbUhTdsTB-oflCBv"  >
<path style="stroke: rgb(132,255,129); stroke-width: 0; stroke-dasharray: none; stroke-linecap: butt; stroke-dashoffset: 0; stroke-linejoin: miter; stroke-miterlimit: 4; fill: rgb(49,78,187); fill-rule: nonzero; opacity: 1;" vector-effect="non-scaling-stroke"  transform=" translate(0, 0)" d="M -27.5 -15.81099 C -27.5 -22.26665 -22.26665 -27.5 -15.81099 -27.5 L 15.81098 -27.5 L 15.81098 -27.5 C 22.266640000000002 -27.5 27.49999 -22.26665 27.49999 -15.81099 L 27.49999 15.81098 L 27.49999 15.81098 C 27.49999 22.266640000000002 22.266640000000002 27.49999 15.81098 27.49999 L -15.81099 27.49999 L -15.81099 27.49999 C -22.26665 27.49999 -27.5 22.266640000000002 -27.5 15.81098 z" stroke-linecap="round" />
</g>
<g transform="matrix(0.1 0 0 0.1 144.38 179.31)" id="rVy5WYfmsuR8fGlgC4iUm"  >
<path style="stroke: rgb(35,10,154); stroke-width: 0; stroke-dasharray: none; stroke-linecap: butt; stroke-dashoffset: 0; stroke-linejoin: miter; stroke-miterlimit: 4; fill: rgb(63,58,58); fill-rule: nonzero; opacity: 1;" vector-effect="non-scaling-stroke"  transform=" translate(0, 0)" d="M 0 -12.5 C 6.9 -12.5 12.5 -6.9 12.5 0 C 12.5 6.9 6.9 12.5 0 12.5 C -6.9 12.5 -12.5 6.9 -12.5 0 C -12.5 -6.9 -6.9 -12.5 0 -12.5 z" stroke-linecap="round" />
</g>
<g transform="matrix(0.14 0 0 0.14 149.12 185.48)" id="wxHeRyMZEEgYkDJusjdB_"  >
<path style="stroke: rgb(35,10,154); stroke-width: 0; stroke-dasharray: none; stroke-linecap: butt; stroke-dashoffset: 0; stroke-linejoin: miter; stroke-miterlimit: 4; fill: rgb(63,58,58); fill-rule: nonzero; opacity: 1;" vector-effect="non-scaling-stroke"  transform=" translate(0, 0)" d="M 0 -12.5 C 6.9 -12.5 12.5 -6.9 12.5 0 C 12.5 6.9 6.9 12.5 0 12.5 C -6.9 12.5 -12.5 6.9 -12.5 0 C -12.5 -6.9 -6.9 -12.5 0 -12.5 z" stroke-linecap="round" />
</g>
<g transform="matrix(0.14 0 0 0.14 156.08 185.48)" id="DgKeNHKphZlLyNQKrM72v"  >
<path style="stroke: rgb(35,10,154); stroke-width: 0; stroke-dasharray: none; stroke-linecap: butt; stroke-dashoffset: 0; stroke-linejoin: miter; stroke-miterlimit: 4; fill: rgb(63,58,58); fill-rule: nonzero; opacity: 1;" vector-effect="non-scaling-stroke"  transform=" translate(0, 0)" d="M 0 -12.5 C 6.9 -12.5 12.5 -6.9 12.5 0 C 12.5 6.9 6.9 12.5 0 12.5 C -6.9 12.5 -12.5 6.9 -12.5 0 C -12.5 -6.9 -6.9 -12.5 0 -12.5 z" stroke-linecap="round" />
</g>
<g transform="matrix(-0.12 0 0 0.12 146.39 175.93)" id="_DseSq7RKS73M_owNC7mR"  >
<path style="stroke: rgb(132,255,129); stroke-width: 0; stroke-dasharray: none; stroke-linecap: butt; stroke-dashoffset: 0; stroke-linejoin: miter; stroke-miterlimit: 4; fill: rgb(49,78,187); fill-rule: nonzero; opacity: 1;" vector-effect="non-scaling-stroke"  transform=" translate(0, 0)" d="M -27.5 -15.80919 C -27.5 -22.26585 -22.26585 -27.5 -15.80919 -27.5 L 15.80919 -27.5 L 15.80919 -27.5 C 22.26585 -27.5 27.5 -22.26585 27.5 -15.80919 L 27.5 15.80919 L 27.5 15.80919 C 27.5 22.26585 22.26585 27.5 15.80919 27.5 L -15.80919 27.5 L -15.80919 27.5 C -22.26585 27.5 -27.5 22.26585 -27.5 15.80919 z" stroke-linecap="round" />
</g>
<g transform="matrix(-0.2 0 0 0.2 152.47 179.31)" id="n28Cx2gezlWWQIGNtw6aO"  >
<path style="stroke: rgb(132,255,129); stroke-width: 0; stroke-dasharray: none; stroke-linecap: butt; stroke-dashoffset: 0; stroke-linejoin: miter; stroke-miterlimit: 4; fill: rgb(49,78,187); fill-rule: nonzero; opacity: 1;" vector-effect="non-scaling-stroke"  transform=" translate(0, 0)" d="M -27.5 -15.81099 C -27.5 -22.26665 -22.26665 -27.5 -15.81099 -27.5 L 15.81098 -27.5 L 15.81098 -27.5 C 22.266640000000002 -27.5 27.49999 -22.26665 27.49999 -15.81099 L 27.49999 15.81098 L 27.49999 15.81098 C 27.49999 22.266640000000002 22.266640000000002 27.49999 15.81098 27.49999 L -15.81099 27.49999 L -15.81099 27.49999 C -22.26665 27.49999 -27.5 22.266640000000002 -27.5 15.81098 z" stroke-linecap="round" />
</g>
<g transform="matrix(0.12 0.08 -0.08 0.13 148.61 177.27)" id="DGGINL9WJRZhjtRb9uLwR"  >
<path style="stroke: rgb(30,17,225); stroke-width: 0; stroke-dasharray: none; stroke-linecap: butt; stroke-dashoffset: 0; stroke-linejoin: miter; stroke-miterlimit: 4; fill: rgb(49,78,187); fill-rule: nonzero; opacity: 1;" vector-effect="non-scaling-stroke"  transform=" translate(0, 0)" d="M -22.5 -22.5 L 22.5 -22.5 L 22.5 22.5 L -22.5 22.5 z" stroke-linecap="round" />
</g>
<g transform="matrix(0.14 0 0 0.14 112.75 195.55)" id="MydOtFgYf5lFJiTMLq48V"  >
<path style="stroke: rgb(35,10,154); stroke-width: 0; stroke-dasharray: none; stroke-linecap: butt; stroke-dashoffset: 0; stroke-linejoin: miter; stroke-miterlimit: 4; fill: rgb(63,58,58); fill-rule: nonzero; opacity: 1;" vector-effect="non-scaling-stroke"  transform=" translate(0, 0)" d="M 0 -12.5 C 6.9 -12.5 12.5 -6.9 12.5 0 C 12.5 6.9 6.9 12.5 0 12.5 C -6.9 12.5 -12.5 6.9 -12.5 0 C -12.5 -6.9 -6.9 -12.5 0 -12.5 z" stroke-linecap="round" />
</g>
<g transform="matrix(0.12 0.07 -0.08 0.13 112.24 187.53)" id="55DzCWGSFehjMftoJ5kie"  >
<path style="stroke: rgb(30,17,225); stroke-width: 0; stroke-dasharray: none; stroke-linecap: butt; stroke-dashoffset: 0; stroke-linejoin: miter; stroke-miterlimit: 4; fill: rgb(30,24,190); fill-rule: nonzero; opacity: 1;" vector-effect="non-scaling-stroke"  transform=" translate(0, 0)" d="M -22.5 -22.5 L 22.5 -22.5 L 22.5 22.5 L -22.5 22.5 z" stroke-linecap="round" />
</g>
<g transform="matrix(-0.12 0 0 0.12 110.09 186.23)" id="Ji1J2y58FTefPHkT5JPc3"  >
<path style="stroke: rgb(132,255,129); stroke-width: 0; stroke-dasharray: none; stroke-linecap: butt; stroke-dashoffset: 0; stroke-linejoin: miter; stroke-miterlimit: 4; fill: rgb(49,78,187); fill-rule: nonzero; opacity: 1;" vector-effect="non-scaling-stroke"  transform=" translate(0, 0)" d="M -27.5 -15.80919 C -27.5 -22.26585 -22.26585 -27.5 -15.80919 -27.5 L 15.80919 -27.5 L 15.80919 -27.5 C 22.26585 -27.5 27.5 -22.26585 27.5 -15.80919 L 27.5 15.80919 L 27.5 15.80919 C 27.5 22.26585 22.26585 27.5 15.80919 27.5 L -15.80919 27.5 L -15.80919 27.5 C -22.26585 27.5 -27.5 22.26585 -27.5 15.80919 z" stroke-linecap="round" />
</g>
<g transform="matrix(-0.19 0 0 0.19 116.01 189.53)" id="l9GdBx4Uk0WC4Lks23VzB"  >
<path style="stroke: rgb(132,255,129); stroke-width: 0; stroke-dasharray: none; stroke-linecap: butt; stroke-dashoffset: 0; stroke-linejoin: miter; stroke-miterlimit: 4; fill: rgb(49,78,187); fill-rule: nonzero; opacity: 1;" vector-effect="non-scaling-stroke"  transform=" translate(0, 0)" d="M -27.5 -15.81099 C -27.5 -22.26665 -22.26665 -27.5 -15.81099 -27.5 L 15.81098 -27.5 L 15.81098 -27.5 C 22.266640000000002 -27.5 27.49999 -22.26665 27.49999 -15.81099 L 27.49999 15.81098 L 27.49999 15.81098 C 27.49999 22.266640000000002 22.266640000000002 27.49999 15.81098 27.49999 L -15.81099 27.49999 L -15.81099 27.49999 C -22.26665 27.49999 -27.5 22.266640000000002 -27.5 15.81098 z" stroke-linecap="round" />
</g>
<g transform="matrix(0.51 0.32 -0.34 0.54 176.06 230.78)" id="E_xVQiLdRFxHIYhD8Js_O"  >
<path style="stroke: rgb(30,17,225); stroke-width: 0; stroke-dasharray: none; stroke-linecap: butt; stroke-dashoffset: 0; stroke-linejoin: miter; stroke-miterlimit: 4; fill: rgb(49,78,187); fill-rule: nonzero; opacity: 1;" vector-effect="non-scaling-stroke"  transform=" translate(0, 0)" d="M -22.5 -22.5 L 22.5 -22.5 L 22.5 22.5 L -22.5 22.5 z" stroke-linecap="round" />
</g>
<g transform="matrix(0.34 0 0 0.34 233.17 227.91)" id="_VxVLfcEFRFBZCCwm_cSJ"  >
<path style="stroke: rgb(35,10,154); stroke-width: 0; stroke-dasharray: none; stroke-linecap: butt; stroke-dashoffset: 0; stroke-linejoin: miter; stroke-miterlimit: 4; fill: rgb(63,58,58); fill-rule: nonzero; opacity: 1;" vector-effect="non-scaling-stroke"  transform=" translate(0, 0)" d="M 0 -12.5 C 6.9 -12.5 12.5 -6.9 12.5 0 C 12.5 6.9 6.9 12.5 0 12.5 C -6.9 12.5 -12.5 6.9 -12.5 0 C -12.5 -6.9 -6.9 -12.5 0 -12.5 z" stroke-linecap="round" />
</g>
<g transform="matrix(0.48 0 0 0.48 249.16 248.7)" id="GZOW1IOAAhmu9E_bLT6Dc"  >
<path style="stroke: rgb(35,10,154); stroke-width: 0; stroke-dasharray: none; stroke-linecap: butt; stroke-dashoffset: 0; stroke-linejoin: miter; stroke-miterlimit: 4; fill: rgb(63,58,58); fill-rule: nonzero; opacity: 1;" vector-effect="non-scaling-stroke"  transform=" translate(0, 0)" d="M 0 -12.5 C 6.9 -12.5 12.5 -6.9 12.5 0 C 12.5 6.9 6.9 12.5 0 12.5 C -6.9 12.5 -12.5 6.9 -12.5 0 C -12.5 -6.9 -6.9 -12.5 0 -12.5 z" stroke-linecap="round" />
</g>
<g transform="matrix(0.48 0 0 0.48 272.59 248.7)" id="_IAwsqk5MMayCyjdQtKOG"  >
<path style="stroke: rgb(35,10,154); stroke-width: 0; stroke-dasharray: none; stroke-linecap: butt; stroke-dashoffset: 0; stroke-linejoin: miter; stroke-miterlimit: 4; fill: rgb(63,58,58); fill-rule: nonzero; opacity: 1;" vector-effect="non-scaling-stroke"  transform=" translate(0, 0)" d="M 0 -12.5 C 6.9 -12.5 12.5 -6.9 12.5 0 C 12.5 6.9 6.9 12.5 0 12.5 C -6.9 12.5 -12.5 6.9 -12.5 0 C -12.5 -6.9 -6.9 -12.5 0 -12.5 z" stroke-linecap="round" />
</g>
<g transform="matrix(-0.4 0 0 0.4 239.97 216.53)" id="kkzassziA_lWLi0wM8Fqc"  >
<path style="stroke: rgb(132,255,129); stroke-width: 0; stroke-dasharray: none; stroke-linecap: butt; stroke-dashoffset: 0; stroke-linejoin: miter; stroke-miterlimit: 4; fill: rgb(49,78,187); fill-rule: nonzero; opacity: 1;" vector-effect="non-scaling-stroke"  transform=" translate(0, 0)" d="M -27.5 -15.80919 C -27.5 -22.26585 -22.26585 -27.5 -15.80919 -27.5 L 15.80919 -27.5 L 15.80919 -27.5 C 22.26585 -27.5 27.5 -22.26585 27.5 -15.80919 L 27.5 15.80919 L 27.5 15.80919 C 27.5 22.26585 22.26585 27.5 15.80919 27.5 L -15.80919 27.5 L -15.80919 27.5 C -22.26585 27.5 -27.5 22.26585 -27.5 15.80919 z" stroke-linecap="round" />
</g>
<g transform="matrix(-0.66 0 0 0.66 260.43 227.91)" id="A7x0uT9Odt9WgJqyQ4ozb"  >
<path style="stroke: rgb(132,255,129); stroke-width: 0; stroke-dasharray: none; stroke-linecap: butt; stroke-dashoffset: 0; stroke-linejoin: miter; stroke-miterlimit: 4; fill: rgb(49,78,187); fill-rule: nonzero; opacity: 1;" vector-effect="non-scaling-stroke"  transform=" translate(0, 0)" d="M -27.5 -15.81099 C -27.5 -22.26665 -22.26665 -27.5 -15.81099 -27.5 L 15.81098 -27.5 L 15.81098 -27.5 C 22.266640000000002 -27.5 27.49999 -22.26665 27.49999 -15.81099 L 27.49999 15.81098 L 27.49999 15.81098 C 27.49999 22.266640000000002 22.266640000000002 27.49999 15.81098 27.49999 L -15.81099 27.49999 L -15.81099 27.49999 C -22.26665 27.49999 -27.5 22.266640000000002 -27.5 15.81098 z" stroke-linecap="round" />
</g>
<g transform="matrix(0.41 0.26 -0.27 0.43 247.42 221.02)" id="HL42MV_rCEoqU9WUJdZ5l"  >
<path style="stroke: rgb(30,17,225); stroke-width: 0; stroke-dasharray: none; stroke-linecap: butt; stroke-dashoffset: 0; stroke-linejoin: miter; stroke-miterlimit: 4; fill: rgb(49,78,187); fill-rule: nonzero; opacity: 1;" vector-effect="non-scaling-stroke"  transform=" translate(0, 0)" d="M -22.5 -22.5 L 22.5 -22.5 L 22.5 22.5 L -22.5 22.5 z" stroke-linecap="round" />
</g>
<g transform="matrix(1.03 0 0 1.03 298.99 338.32)" id="RaNeQZOLnKTK-onMsJVoP"  >
<path style="stroke: rgb(35,10,154); stroke-width: 0; stroke-dasharray: none; stroke-linecap: butt; stroke-dashoffset: 0; stroke-linejoin: miter; stroke-miterlimit: 4; fill: rgb(63,58,58); fill-rule: nonzero; opacity: 1;" vector-effect="non-scaling-stroke"  transform=" translate(0, 0)" d="M 0 -12.5 C 6.9 -12.5 12.5 -6.9 12.5 0 C 12.5 6.9 6.9 12.5 0 12.5 C -6.9 12.5 -12.5 6.9 -12.5 0 C -12.5 -6.9 -6.9 -12.5 0 -12.5 z" stroke-linecap="round" />
</g>
<g transform="matrix(-0.86 0 0 0.86 228.93 269.24)" id="zkCHetoCTNMobE2bjMGgK"  >
<path style="stroke: rgb(132,255,129); stroke-width: 0; stroke-dasharray: none; stroke-linecap: butt; stroke-dashoffset: 0; stroke-linejoin: miter; stroke-miterlimit: 4; fill: rgb(49,78,187); fill-rule: nonzero; opacity: 1;" vector-effect="non-scaling-stroke"  transform=" translate(0, 0)" d="M -27.5 -15.77191 C -27.5 -22.24915 -22.24916 -27.5 -15.77191 -27.5 L 15.77191 -27.5 L 15.77191 -27.5 C 22.24915 -27.5 27.5 -22.24916 27.5 -15.77191 L 27.5 15.77191 L 27.5 15.77191 C 27.5 22.24915 22.24916 27.5 15.77191 27.5 L -15.77191 27.5 L -15.77191 27.5 C -22.24915 27.5 -27.5 22.24916 -27.5 15.77191 z" stroke-linecap="round" />
</g>
<g transform="matrix(-1.42 0 0 1.42 272.86 293.68)" id="j_KdAoWRQ6Oz2RnbFjJTQ"  >
<path style="stroke: rgb(132,255,129); stroke-width: 0; stroke-dasharray: none; stroke-linecap: butt; stroke-dashoffset: 0; stroke-linejoin: miter; stroke-miterlimit: 4; fill: rgb(49,78,187); fill-rule: nonzero; opacity: 1;" vector-effect="non-scaling-stroke"  transform=" translate(0, 0)" d="M -27.5 -15.80532 C -27.5 -22.26411 -22.26411 -27.5 -15.80532 -27.5 L 15.80531 -27.5 L 15.80531 -27.5 C 22.2641 -27.5 27.49999 -22.26411 27.49999 -15.80532 L 27.49999 15.80531 L 27.49999 15.80531 C 27.49999 22.2641 22.2641 27.49999 15.80531 27.49999 L -15.80532 27.49999 L -15.80532 27.49999 C -22.26411 27.49999 -27.5 22.2641 -27.5 15.80531 z" stroke-linecap="round" />
</g>
<g transform="matrix(0.88 0.55 -0.58 0.93 244.93 278.89)" id="3077QBlMwBwY_HkVCmu-O"  >
<path style="stroke: rgb(30,17,225); stroke-width: 0; stroke-dasharray: none; stroke-linecap: butt; stroke-dashoffset: 0; stroke-linejoin: miter; stroke-miterlimit: 4; fill: rgb(49,78,187); fill-rule: nonzero; opacity: 1;" vector-effect="non-scaling-stroke"  transform=" translate(0, 0)" d="M -22.5 -22.5 L 22.5 -22.5 L 22.5 22.5 L -22.5 22.5 z" stroke-linecap="round" />
</g>
<g transform="matrix(0.18 0 0 0.18 158.41 193.81)" id="8uZ9SjYmzdL6tyVgVnnFB"  >
<path style="stroke: rgb(35,10,154); stroke-width: 0; stroke-dasharray: none; stroke-linecap: butt; stroke-dashoffset: 0; stroke-linejoin: miter; stroke-miterlimit: 4; fill: rgb(63,58,58); fill-rule: nonzero; opacity: 1;" vector-effect="non-scaling-stroke"  transform=" translate(0, 0)" d="M 0 -12.5 C 6.9 -12.5 12.5 -6.9 12.5 0 C 12.5 6.9 6.9 12.5 0 12.5 C -6.9 12.5 -12.5 6.9 -12.5 0 C -12.5 -6.9 -6.9 -12.5 0 -12.5 z" stroke-linecap="round" />
</g>
<g transform="matrix(0.25 0 0 0.25 166.86 204.79)" id="2M5jE1RFPXQRc_LTkYFW1"  >
<path style="stroke: rgb(35,10,154); stroke-width: 0; stroke-dasharray: none; stroke-linecap: butt; stroke-dashoffset: 0; stroke-linejoin: miter; stroke-miterlimit: 4; fill: rgb(63,58,58); fill-rule: nonzero; opacity: 1;" vector-effect="non-scaling-stroke"  transform=" translate(0, 0)" d="M 0 -12.5 C 6.9 -12.5 12.5 -6.9 12.5 0 C 12.5 6.9 6.9 12.5 0 12.5 C -6.9 12.5 -12.5 6.9 -12.5 0 C -12.5 -6.9 -6.9 -12.5 0 -12.5 z" stroke-linecap="round" />
</g>
<g transform="matrix(0.25 0 0 0.25 179.24 204.79)" id="EXdFcDeQ1JWhrHGtmcOwR"  >
<path style="stroke: rgb(35,10,154); stroke-width: 0; stroke-dasharray: none; stroke-linecap: butt; stroke-dashoffset: 0; stroke-linejoin: miter; stroke-miterlimit: 4; fill: rgb(63,58,58); fill-rule: nonzero; opacity: 1;" vector-effect="non-scaling-stroke"  transform=" translate(0, 0)" d="M 0 -12.5 C 6.9 -12.5 12.5 -6.9 12.5 0 C 12.5 6.9 6.9 12.5 0 12.5 C -6.9 12.5 -12.5 6.9 -12.5 0 C -12.5 -6.9 -6.9 -12.5 0 -12.5 z" stroke-linecap="round" />
</g>
<g transform="matrix(-0.21 0 0 0.21 162 187.79)" id="Mfh9DHWnbPXTjtFwfGSGF"  >
<path style="stroke: rgb(132,255,129); stroke-width: 0; stroke-dasharray: none; stroke-linecap: butt; stroke-dashoffset: 0; stroke-linejoin: miter; stroke-miterlimit: 4; fill: rgb(49,78,187); fill-rule: nonzero; opacity: 1;" vector-effect="non-scaling-stroke"  transform=" translate(0, 0)" d="M -27.5 -15.80919 C -27.5 -22.26585 -22.26585 -27.5 -15.80919 -27.5 L 15.80919 -27.5 L 15.80919 -27.5 C 22.26585 -27.5 27.5 -22.26585 27.5 -15.80919 L 27.5 15.80919 L 27.5 15.80919 C 27.5 22.26585 22.26585 27.5 15.80919 27.5 L -15.80919 27.5 L -15.80919 27.5 C -22.26585 27.5 -27.5 22.26585 -27.5 15.80919 z" stroke-linecap="round" />
</g>
<g transform="matrix(-0.35 0 0 0.35 172.81 193.81)" id="vSMXI--2zAjbnwcsNqLdh"  >
<path style="stroke: rgb(132,255,129); stroke-width: 0; stroke-dasharray: none; stroke-linecap: butt; stroke-dashoffset: 0; stroke-linejoin: miter; stroke-miterlimit: 4; fill: rgb(49,78,187); fill-rule: nonzero; opacity: 1;" vector-effect="non-scaling-stroke"  transform=" translate(0, 0)" d="M -27.5 -15.81099 C -27.5 -22.26665 -22.26665 -27.5 -15.81099 -27.5 L 15.81098 -27.5 L 15.81098 -27.5 C 22.266640000000002 -27.5 27.49999 -22.26665 27.49999 -15.81099 L 27.49999 15.81098 L 27.49999 15.81098 C 27.49999 22.266640000000002 22.266640000000002 27.49999 15.81098 27.49999 L -15.81099 27.49999 L -15.81099 27.49999 C -22.26665 27.49999 -27.5 22.266640000000002 -27.5 15.81098 z" stroke-linecap="round" />
</g>
<g transform="matrix(0.22 0.13 -0.14 0.23 165.94 190.16)" id="EA0xduLW8wkkihfm6GQ6T"  >
<path style="stroke: rgb(30,17,225); stroke-width: 0; stroke-dasharray: none; stroke-linecap: butt; stroke-dashoffset: 0; stroke-linejoin: miter; stroke-miterlimit: 4; fill: rgb(49,78,187); fill-rule: nonzero; opacity: 1;" vector-effect="non-scaling-stroke"  transform=" translate(0, 0)" d="M -22.5 -22.5 L 22.5 -22.5 L 22.5 22.5 L -22.5 22.5 z" stroke-linecap="round" />
</g>
</svg>